<svg width="64" height="64" viewBox="0 0 64 64" fill="none" xmlns="http://www.w3.org/2000/svg">
<path d="M24.4487 50.0099V43.9733H25.7479V50.0059C25.7479 50.1797 25.7879 50.3511 25.8647 50.5069C25.9415 50.6627 26.0531 50.7988 26.1908 50.9047C26.3288 51.0103 26.4891 51.0829 26.6595 51.1168C26.8299 51.1507 27.0058 51.145 27.1737 51.1002C28.914 50.6343 30.4672 49.5776 31.5464 48.1243C32.6491 46.6404 33.2076 44.8003 33.1187 42.9435C32.9938 40.3483 31.5898 37.9628 29.4052 36.564V27.44C31.715 25.97 33.1226 23.4331 33.1226 20.663C33.1226 17.0222 30.6671 13.8281 27.1516 12.8953C26.8117 12.8055 26.4488 12.878 26.17 13.0922C26.0325 13.198 25.9211 13.334 25.8444 13.4897C25.7678 13.6454 25.7279 13.8166 25.728 13.9901V20.0272H24.4292V13.9939C24.4291 13.8202 24.3892 13.6488 24.3124 13.493C24.2356 13.3371 24.124 13.201 23.9863 13.0952C23.8483 12.9895 23.688 12.9169 23.5176 12.883C23.3472 12.8491 23.1713 12.8548 23.0034 12.8996C21.2631 13.3656 19.7099 14.4223 18.6302 15.8755C17.528 17.3595 16.9695 19.1996 17.0584 21.0564C17.1827 23.6489 18.585 26.0331 20.7666 27.4324V36.5634C18.4602 38.0338 17.0544 40.5698 17.0544 43.3368C17.0544 46.9777 19.5098 50.1718 23.0255 51.1045C23.1203 51.1296 23.2178 51.1424 23.3159 51.1426C23.5632 51.1426 23.8066 51.0617 24.007 50.9077C24.1444 50.8018 24.2557 50.6658 24.3323 50.5101C24.4089 50.3545 24.4487 50.1834 24.4487 50.0099ZM22.183 42.8405V48.3241C20.4444 47.3089 19.3195 45.4252 19.3195 43.337C19.3195 41.1811 20.509 39.2199 22.4238 38.2194C22.6072 38.1236 22.7609 37.9794 22.8682 37.8023C22.9754 37.6253 23.0321 37.4223 23.0321 37.2154V26.7819C23.0321 26.5753 22.9756 26.3726 22.8687 26.1958C22.7617 26.019 22.6085 25.8748 22.4255 25.7788C20.6082 24.8252 19.4188 22.9742 19.3213 20.9479C19.2173 18.777 20.3585 16.7579 22.1636 15.6883V21.1595C22.1636 21.7852 22.6707 22.2924 23.2964 22.2924H26.8608C27.4864 22.2924 27.9936 21.7852 27.9936 21.1595V15.6759C29.7326 16.6911 30.857 18.5744 30.857 20.6626C30.857 22.8212 29.6658 24.7827 27.7489 25.7823C27.5652 25.8781 27.4113 26.0223 27.3038 26.1994C27.1964 26.3765 27.1395 26.5797 27.1394 26.7868V37.2149C27.1394 37.4217 27.196 37.6247 27.3031 37.8016C27.4102 37.9785 27.5638 38.1227 27.7471 38.2186C29.5671 39.1717 30.7583 41.0235 30.8556 43.0519C30.9596 45.223 29.8184 47.2421 28.0134 48.3116V42.8405C28.0134 42.2148 27.5059 41.7076 26.8806 41.7076H23.3159C22.6901 41.7076 22.183 42.2148 22.183 42.8405ZM38.0225 18.2975C37.9412 18.5557 37.9552 18.8345 38.0619 19.0833L38.6243 20.3963V32.3897C37.2791 32.4031 36.1883 33.5013 36.1883 34.8496V45.7613C36.1883 48.7284 38.6026 51.1426 41.5697 51.1426C44.5371 51.1426 46.9513 48.7284 46.9513 45.7613V34.8496C46.9513 33.5009 45.8605 32.4031 44.515 32.3897V20.3958L45.0778 19.0833C45.1843 18.8345 45.1983 18.5557 45.1172 18.2974L43.6564 13.6506C43.5842 13.4206 43.4404 13.2196 43.2461 13.0769C43.0517 12.9343 42.8169 12.8573 42.5758 12.8573H40.5638C40.0687 12.8573 39.6315 13.1785 39.4828 13.6507L38.0225 18.2975ZM44.6852 34.8497V45.7614C44.6852 47.4793 43.2879 48.8771 41.5697 48.8771C39.8514 48.8771 38.454 47.4792 38.454 45.7614V34.8497C38.454 34.7422 38.5412 34.6546 38.6486 34.6546H44.4905C44.5981 34.6551 44.6852 34.7422 44.6852 34.8497ZM41.3952 15.1229H41.7445L42.8299 18.5766L42.3409 19.7169C42.2806 19.8579 42.2495 20.0097 42.2493 20.163V32.389H40.89V20.1635C40.8901 20.0101 40.8589 19.8583 40.7983 19.7174L40.3097 18.5766L41.3952 15.1229Z" fill="#1341B0"/>
<path d="M12.2947 46.9053C11.5509 46.9043 10.8171 47.0769 10.1518 47.4094C6.95204 42.889 5.26562 37.5834 5.26562 32C5.26562 17.2584 17.2584 5.26562 32 5.26562C34.1222 5.26562 36.2348 5.51484 38.2778 6.00682C38.4225 6.04166 38.5725 6.04766 38.7195 6.02447C38.8664 6.00129 39.0074 5.94938 39.1343 5.87172C39.2612 5.79405 39.3715 5.69214 39.459 5.57182C39.5465 5.4515 39.6094 5.31512 39.6442 5.17047C39.7907 4.56215 39.4164 3.95009 38.808 3.80407C36.5913 3.2704 34.301 3 32 3C24.2539 3 16.9712 6.01657 11.4938 11.4938C6.01668 16.9712 3 24.2539 3 32C3 38.1229 4.8705 43.9379 8.4162 48.8771C7.81887 49.6935 7.49545 50.6742 7.49545 51.7052C7.49545 52.9872 7.99457 54.192 8.90127 55.0987C9.80798 56.0054 11.0128 56.5045 12.2948 56.5045C13.5767 56.5045 14.7822 56.0054 15.6887 55.0987C16.595 54.192 17.0946 52.9872 17.0946 51.7052C17.0946 50.4233 16.595 49.2178 15.6887 48.3113C14.7822 47.405 13.5766 46.9053 12.2947 46.9053ZM14.0865 53.4969C13.8517 53.7329 13.5725 53.92 13.265 54.0474C12.9574 54.1747 12.6277 54.2398 12.2948 54.2389C11.6182 54.2389 10.9819 53.9752 10.5031 53.4969C10.0248 53.0181 9.76108 52.3818 9.76108 51.7052C9.76021 51.3723 9.82534 51.0426 9.9527 50.735C10.0801 50.4275 10.2671 50.1483 10.5031 49.9135C10.9819 49.4351 11.6182 49.1714 12.2948 49.1714C12.9718 49.1714 13.6082 49.4347 14.0865 49.9134C14.5653 50.3922 14.8291 51.0286 14.8291 51.7052C14.8291 52.3818 14.5653 53.0181 14.0865 53.4969ZM55.5838 15.1225C56.1811 14.3065 56.5045 13.3254 56.5045 12.2948C56.5045 11.0128 56.0054 9.80752 55.0987 8.90127C54.192 7.99457 52.9872 7.49545 51.7052 7.49545C50.4233 7.49545 49.2178 7.99457 48.3113 8.90127C47.405 9.80752 46.9054 11.0128 46.9054 12.2948C46.9054 13.5767 47.405 14.7822 48.3113 15.6887C49.2178 16.595 50.4233 17.0942 51.7052 17.0942C52.4614 17.0942 53.1903 16.9194 53.8478 16.5907C57.0471 21.1122 58.7344 26.4201 58.7344 32C58.7344 46.7416 46.7416 58.7344 32 58.7344C29.7321 58.7344 27.4803 58.4503 25.3058 57.8896C24.6996 57.733 24.0823 58.0981 23.926 58.7038C23.7699 59.3096 24.1344 59.9273 24.7403 60.0836C27.0988 60.6915 29.5415 61 32 61C39.7461 61 47.0288 57.9834 52.5062 52.5062C57.9833 47.0288 61 39.7461 61 32C61 25.881 59.1292 20.0625 55.5838 15.1225ZM49.9135 14.0865C49.6773 13.8518 49.4901 13.5726 49.3627 13.2651C49.2352 12.9575 49.17 12.6278 49.1709 12.2948C49.1709 11.6182 49.4347 10.9819 49.9135 10.5031C50.1483 10.2671 50.4275 10.08 50.735 9.95264C51.0426 9.82527 51.3723 9.76016 51.7052 9.76108C52.3818 9.76108 53.0181 10.0248 53.4969 10.5031C53.9752 10.9819 54.2389 11.6182 54.2389 12.2948C54.2398 12.6277 54.1747 12.9574 54.0474 13.265C53.92 13.5725 53.7329 13.8517 53.4969 14.0865C53.0181 14.5653 52.3818 14.8291 51.7052 14.8291C51.3722 14.83 51.0425 14.7648 50.7349 14.6373C50.4274 14.5099 50.1482 14.3226 49.9135 14.0865ZM22.0746 56.8313L22.0431 56.8188C21.7646 56.7063 21.4527 56.709 21.1762 56.8263C20.8996 56.9436 20.6809 57.166 20.5682 57.4444C20.3343 58.0246 20.6139 58.6849 21.194 58.9194L21.2255 58.9318C21.3601 58.9864 21.5041 59.0145 21.6494 59.0145C22.0976 59.0145 22.5216 58.7467 22.6998 58.3061C22.9349 57.7264 22.6549 57.0657 22.0746 56.8313ZM41.9878 7.19367C41.9908 7.19492 41.9997 7.19843 42.0045 7.2007C42.2823 7.31337 42.5933 7.31139 42.8696 7.19519C43.1459 7.07898 43.3649 6.85802 43.4786 6.58071C43.7162 6.00195 43.4396 5.34039 42.8608 5.10273C42.8565 5.10126 42.8522 5.09952 42.848 5.09752C42.2687 4.85985 41.6073 5.13682 41.3696 5.71569C41.1324 6.29445 41.409 6.95646 41.9878 7.19367Z" fill="#1341B0"/>
</svg>
