<svg width="64" height="64" viewBox="0 0 64 64" fill="none" xmlns="http://www.w3.org/2000/svg">
<path d="M34.3406 58.133C34.1352 57.9284 33.8573 57.8133 33.5673 57.8125C33.2797 57.8125 32.9975 57.9295 32.7941 58.133C32.5906 58.3364 32.4736 58.6186 32.4736 58.9062C32.4736 59.1939 32.5906 59.4761 32.7941 59.6795C32.9975 59.883 33.2797 60 33.5673 60C33.8561 60 34.1372 59.883 34.3406 59.6795C34.5452 59.4761 34.6611 59.1939 34.6611 58.9062C34.6611 58.6186 34.5452 58.3364 34.3406 58.133ZM29.2656 57.8125H24.5516C20.4733 57.8125 16.6879 55.7867 14.4256 52.3933C14.3258 52.2435 14.1905 52.1206 14.0317 52.0357C13.873 51.9507 13.6957 51.9062 13.5156 51.9062H5.09375C4.48967 51.9062 4 52.3959 4 53C4 53.6041 4.48967 54.0938 5.09375 54.0938H12.9449C15.6434 57.803 19.9387 60 24.5516 60H29.2656C29.8697 60 30.3594 59.5103 30.3594 58.9062C30.3594 58.3022 29.8697 57.8125 29.2656 57.8125ZM54.1033 37.024C54.1033 35.623 53.4721 34.3673 52.48 33.524C53.4722 32.6806 54.1033 31.4249 54.1033 30.0239C54.1033 27.4909 52.0425 25.4302 49.5095 25.4302H28.5692C26.7218 25.4302 25.2188 23.9271 25.2188 22.0797V11.0364C25.2188 7.15656 22.0622 4 18.1823 4C17.9253 3.99999 17.6764 4.09052 17.4795 4.25571C17.2825 4.4209 17.15 4.65019 17.1053 4.90333L16.1551 10.2789C15.7786 12.4153 15.0255 14.4678 13.9307 16.3406C12.096 19.4854 11.1288 23.0607 11.1277 26.7015V27.8411H5.09375C4.48967 27.8411 4 28.3308 4 28.9349C4 29.539 4.48967 30.0286 5.09375 30.0286H11.1277V40.524C11.1277 41.1281 11.6174 41.6178 12.2215 41.6178C12.8256 41.6178 13.3153 41.1281 13.3153 40.524V26.7015C13.3153 23.4517 14.1813 20.2503 15.8198 17.4435C17.0451 15.3476 17.8879 13.0506 18.3091 10.6597L19.0848 6.27172C21.3288 6.69577 23.0312 8.67108 23.0312 11.0364V22.0797C23.0312 25.1333 25.5156 27.6177 28.5692 27.6177H31.589C31.1418 28.3406 30.9054 29.1739 30.9062 30.0239C30.9062 31.4249 31.5375 32.6806 32.5295 33.5239C31.5375 34.3672 30.9062 35.6229 30.9062 37.0239C30.9062 38.4249 31.5375 39.6806 32.5295 40.5239C31.5375 41.3672 30.9062 42.6229 30.9062 44.0239C30.9062 45.4249 31.5375 46.6806 32.5295 47.5239C31.5375 48.3672 30.9062 49.6229 30.9062 51.0239C30.9062 53.5569 32.967 55.6177 35.5 55.6177H48.2673C47.8298 56.893 46.6196 57.8125 45.1978 57.8125H37.8465C37.2425 57.8125 36.7528 58.3022 36.7528 58.9062C36.7528 59.5103 37.2425 60 37.8465 60H45.1978C47.8761 60 50.1063 58.0513 50.5489 55.4977C52.5827 55.0252 54.1033 53.1994 54.1033 51.024C54.1033 49.623 53.4721 48.3673 52.48 47.524C53.4721 46.6807 54.1033 45.425 54.1033 44.024C54.1033 42.623 53.4721 41.3673 52.48 40.524C53.4721 39.6807 54.1033 38.425 54.1033 37.024ZM49.5095 53.4303H35.5C34.1732 53.4303 33.0938 52.3509 33.0938 51.024C33.0938 49.6972 34.1732 48.6178 35.5 48.6178H49.5095C50.8363 48.6177 51.9158 49.6972 51.9158 51.024C51.9158 52.3507 50.8363 53.4303 49.5095 53.4303ZM49.5095 46.4303H35.5C34.1732 46.4303 33.0938 45.3509 33.0938 44.024C33.0938 42.6972 34.1732 41.6178 35.5 41.6178H49.5095C50.8363 41.6177 51.9158 42.6972 51.9158 44.024C51.9158 45.3507 50.8363 46.4303 49.5095 46.4303ZM49.5095 39.4303H35.5C34.1732 39.4303 33.0938 38.3509 33.0938 37.024C33.0938 35.6972 34.1732 34.6178 35.5 34.6178H49.5095C50.8363 34.6177 51.9158 35.6972 51.9158 37.024C51.9158 38.3507 50.8363 39.4303 49.5095 39.4303ZM49.5096 32.4302H35.5C34.1732 32.4302 33.0938 31.3507 33.0938 30.0239C33.0938 28.6971 34.1732 27.6177 35.5 27.6177H49.5096C50.8365 27.6177 51.9159 28.6972 51.9159 30.0239C51.9159 31.3506 50.8365 32.4302 49.5096 32.4302ZM12.995 43.2503C12.7916 43.0469 12.5094 42.9298 12.2217 42.9298C11.9341 42.9298 11.6519 43.0469 11.4484 43.2503C11.245 43.4537 11.128 43.7359 11.128 44.0236C11.128 44.3112 11.245 44.5934 11.4484 44.7969C11.6519 45.0014 11.9341 45.1173 12.2217 45.1173C12.5094 45.1173 12.7916 45.0014 12.995 44.7969C13.1984 44.5934 13.3155 44.3123 13.3155 44.0236C13.3155 43.7359 13.1984 43.4537 12.995 43.2503Z" fill="#1341B0"/>
<path d="M50.4354 9.25853C50.3722 9.06446 50.2561 8.89192 50.1 8.76042C49.944 8.62891 49.7542 8.54367 49.5523 8.51434L45.8369 7.97545L44.1744 4.60944C44.0841 4.4265 43.9444 4.27247 43.7711 4.16478C43.5978 4.05708 43.3978 4 43.1938 4C42.9897 4.00005 42.7894 4.05721 42.6161 4.16501C42.4428 4.27281 42.3032 4.42694 42.2129 4.60998L40.5522 7.97688L36.8372 8.51773C36.6353 8.54713 36.4456 8.63245 36.2896 8.76404C36.1336 8.89562 36.0175 9.06823 35.9545 9.26233C35.8915 9.45644 35.884 9.66431 35.933 9.86243C35.9819 10.0606 36.0853 10.241 36.2315 10.3835L38.9206 13.0032L38.287 16.7036C38.2525 16.9047 38.2751 17.1115 38.352 17.3005C38.4289 17.4896 38.5572 17.6533 38.7224 17.7732C38.8875 17.8931 39.0829 17.9644 39.2865 17.9791C39.49 17.9938 39.6936 17.9512 39.8742 17.8562L43.1967 16.1084L46.5202 17.8544C46.7009 17.9494 46.9045 17.9918 47.1081 17.9771C47.3116 17.9623 47.507 17.8909 47.6721 17.7709C47.8372 17.6509 47.9654 17.4871 48.0422 17.298C48.1191 17.1089 48.1415 16.9021 48.1069 16.701L47.4712 13.001L50.1589 10.3798C50.305 10.2373 50.4083 10.0568 50.4572 9.85865C50.506 9.6605 50.4985 9.45262 50.4354 9.25853ZM45.5321 11.8364C45.4051 11.9602 45.3102 12.1131 45.2554 12.2817C45.2007 12.4504 45.1877 12.6299 45.2178 12.8047L45.5755 14.8872L43.7049 13.9045C43.5479 13.822 43.3732 13.7789 43.1959 13.7789C43.0185 13.779 42.8439 13.8221 42.6869 13.9047L40.8168 14.8885L41.1735 12.8058C41.2034 12.631 41.1904 12.4515 41.1356 12.2829C41.0808 12.1142 40.9857 11.9615 40.8587 11.8377L39.3453 10.3632L41.4363 10.0587C41.6118 10.0332 41.7784 9.96534 41.9219 9.86108C42.0653 9.75682 42.1813 9.61925 42.2597 9.46022L43.1943 7.56519L44.13 9.45978C44.2085 9.61877 44.3246 9.75629 44.4681 9.86048C44.6115 9.96466 44.7782 10.0324 44.9537 10.0578L47.0449 10.3611L45.5321 11.8364ZM34.0781 17.0924H33.0938V16.108C33.0938 15.504 32.6041 15.0143 32 15.0143C31.3959 15.0143 30.9062 15.504 30.9062 16.108V17.0924H29.9219C29.3178 17.0924 28.8281 17.5821 28.8281 18.1862C28.8281 18.7902 29.3178 19.2799 29.9219 19.2799H30.9062V20.2643C30.9062 20.8684 31.3959 21.358 32 21.358C32.6041 21.358 33.0938 20.8684 33.0938 20.2643V19.2799H34.0781C34.6822 19.2799 35.1719 18.7902 35.1719 18.1862C35.1719 17.5821 34.6822 17.0924 34.0781 17.0924ZM58.9062 6.07812H57.9219V5.09375C57.9219 4.48967 57.4322 4 56.8281 4C56.224 4 55.7344 4.48967 55.7344 5.09375V6.07812H54.75C54.1459 6.07812 53.6562 6.5678 53.6562 7.17188C53.6562 7.77595 54.1459 8.26562 54.75 8.26562H55.7344V9.25C55.7344 9.85408 56.224 10.3438 56.8281 10.3438C57.4322 10.3438 57.9219 9.85408 57.9219 9.25V8.26562H58.9062C59.5103 8.26562 60 7.77595 60 7.17188C60 6.5678 59.5103 6.07812 58.9062 6.07812Z" fill="#1341B0"/>
</svg>
