<svg width="64" height="64" viewBox="0 0 64 64" fill="none" xmlns="http://www.w3.org/2000/svg">
<path d="M56.0926 12.3607C48.0259 10.0987 39.9117 6.57666 32.6273 2.17534C32.4374 2.06055 32.2209 2 32.0003 2C31.7798 2 31.5633 2.06055 31.3734 2.17534C23.8789 6.7031 16.2032 10.0346 7.90739 12.3607C7.64667 12.4338 7.41664 12.5925 7.25269 12.8124C7.08874 13.0324 6.99996 13.3014 7 13.578V26.474C7 39.754 12.9865 48.5444 18.0088 53.5801C23.4155 59.0018 29.7137 62 32.0003 62C34.2868 62 40.5849 59.0018 45.9917 53.5801C51.0138 48.5446 57 39.7541 57 26.474V13.5779C57 13.0093 56.6285 12.5108 56.0926 12.3607ZM54.5334 26.4739C54.5334 38.8773 48.9497 47.0798 44.2653 51.7769C38.9484 57.1084 33.2637 59.4756 32.0003 59.4756C30.7369 59.4756 25.0519 57.1084 19.7349 51.7769C15.0506 47.0797 9.46669 38.8773 9.46669 26.4739V14.536C17.3998 12.2309 24.7878 9.01404 32.0006 4.72463C39.0332 8.90025 46.7898 12.2771 54.5334 14.5355V26.4739Z" fill="#1341B0"/>
<path d="M21.0685 14.3948C20.8189 13.7462 20.1029 13.4276 19.4689 13.6832C17.2574 14.5746 15.0155 15.3853 12.7477 16.1137C12.4971 16.1942 12.2782 16.3543 12.1228 16.5709C11.9673 16.7875 11.8835 17.0492 11.8835 17.318V22.1919C11.8835 22.8889 12.4357 23.454 13.1167 23.454C13.7977 23.454 14.35 22.8889 14.35 22.1919V18.2403C16.3796 17.5682 18.3883 16.8316 20.3731 16.0316C21.0069 15.7762 21.3183 15.0435 21.0685 14.3948ZM23.4113 14.6342C23.5768 14.6342 23.7448 14.6001 23.9059 14.5282L23.9286 14.5181C24.5526 14.2383 24.8336 13.4949 24.5601 12.8566C24.2864 12.2181 23.556 11.9292 22.9327 12.2088L22.9128 12.2176C22.2884 12.4966 22.0065 13.2394 22.2792 13.878C22.4815 14.3522 22.9355 14.6342 23.4113 14.6342ZM46.6944 42.6972C46.1245 42.316 45.3602 42.48 44.9873 43.0635C43.971 44.6553 42.7787 46.1797 41.443 47.5938C40.3444 48.7567 39.1619 49.8334 37.9054 50.8147C37.3639 51.2373 37.2597 52.0292 37.6725 52.5836C37.7876 52.7383 37.9361 52.8637 38.1064 52.9499C38.2766 53.0361 38.4641 53.0809 38.6541 53.0806C38.9149 53.0806 39.1777 52.9964 39.401 52.822C40.7561 51.7636 42.0314 50.6025 43.2162 49.3483C44.6603 47.8197 45.9509 46.1697 47.0522 44.4442C47.425 43.8606 47.2646 43.0785 46.6944 42.6972ZM35.0412 52.7941L34.9705 52.8368C34.3811 53.1861 34.1797 53.9581 34.5209 54.5613C34.602 54.7048 34.7099 54.8305 34.8385 54.9313C34.9671 55.0321 35.1138 55.106 35.2703 55.1487C35.4268 55.1914 35.59 55.2021 35.7506 55.1802C35.9112 55.1583 36.0659 55.1043 36.2061 55.0211L36.2877 54.972C36.8755 54.6198 37.0729 53.8467 36.7287 53.2452C36.3842 52.6439 35.6287 52.4422 35.0412 52.7941ZM23.5936 29.4241C22.8364 28.649 21.8292 28.2225 20.7581 28.2225C19.687 28.2225 18.6797 28.6492 17.9221 29.4241C16.3587 31.0244 16.3587 33.6283 17.9221 35.2285L25.2046 42.681C25.962 43.4558 26.9691 43.8825 28.0404 43.8825C29.1116 43.8825 30.1187 43.4558 30.8762 42.6807L46.0789 27.1227C47.6422 25.522 47.6422 22.9185 46.0787 21.3187C45.3213 20.5437 44.3142 20.1171 43.2428 20.1171C42.1715 20.1171 41.1644 20.5438 40.4069 21.3187L28.0402 33.9744L23.5936 29.4241ZM42.1512 23.1037C42.2942 22.9566 42.4644 22.84 42.6518 22.7606C42.8392 22.6813 43.0401 22.6407 43.2429 22.6413C43.6556 22.6413 44.0431 22.8055 44.3348 23.1037C44.9365 23.7196 44.9365 24.722 44.3345 25.338L29.1321 40.8958C28.8407 41.1941 28.4528 41.3583 28.0404 41.3583C27.6279 41.3583 27.24 41.1941 26.9485 40.8958L19.6662 33.4437C19.0643 32.8276 19.0642 31.8252 19.666 31.2094C19.9576 30.9111 20.3454 30.7467 20.758 30.7467C21.1706 30.7467 21.5582 30.9109 21.8496 31.2091L27.1681 36.652C27.3995 36.8886 27.7131 37.0216 28.0402 37.0216C28.3674 37.0216 28.6809 36.8887 28.9121 36.652L42.1512 23.1037Z" fill="#1341B0"/>
</svg>
