<svg width="64" height="64" viewBox="0 0 64 64" fill="none" xmlns="http://www.w3.org/2000/svg">
<path d="M60.5127 17.4176L46.4264 3.47232C44.4434 1.50917 41.2169 1.50929 39.2335 3.47232L31.3124 11.3141C30.8503 11.7716 30.8503 12.5134 31.3124 12.971C31.7746 13.4285 32.5238 13.4285 32.986 12.971L40.9071 5.12923C41.9675 4.07941 43.6929 4.07964 44.7529 5.12923L58.8391 19.0745C59.8995 20.1241 59.8995 21.8321 58.8391 22.8818L35.6311 45.8575C35.1175 46.366 34.4346 46.646 33.7082 46.646C32.9819 46.646 32.299 46.3659 31.7854 45.8575L30.8165 44.8983L36.2248 39.5442C38.0636 37.7237 38.0636 34.7617 36.2248 32.9412C34.386 31.1208 31.394 31.1205 29.5552 32.9412L24.76 37.6884L23.9834 37.6993C23.8424 37.7018 23.7014 37.7071 23.5606 37.7153L17.6991 31.9123C16.6388 30.8626 16.6388 29.1547 17.6991 28.105L25.455 20.4267C25.9171 19.9692 25.9171 19.2274 25.455 18.7698C24.993 18.3125 24.2435 18.3125 23.7814 18.7698L16.0255 26.4481C14.0424 28.4114 14.0424 31.6058 16.0255 33.5691L20.7642 38.2601C19.3246 38.7555 18.0045 39.5676 16.8984 40.6625C14.9956 42.5461 13.9325 45.0504 13.9046 47.7142L13.8958 48.5466L2.34658 59.9805C1.88447 60.438 1.88447 61.1798 2.34658 61.6374C2.5777 61.8661 2.88053 61.9806 3.18335 61.9806C3.48618 61.9806 3.78913 61.8661 4.02012 61.6374L15.9109 49.8658C16.1298 49.649 16.2542 49.3559 16.2574 49.0494L16.2711 47.7387C16.2925 45.6916 17.1096 43.7671 18.5718 42.3195C20.0264 40.8796 21.9601 40.0709 24.0168 40.0422L25.2737 40.0247C25.5817 40.0204 25.876 39.8973 26.0939 39.6817L31.2288 34.5981C32.1449 33.6914 33.6352 33.6914 34.5513 34.5981C35.4673 35.5049 35.4673 36.9806 34.5513 37.8874L26.8491 45.5126C26.3869 45.9701 26.3869 46.7119 26.8491 47.1695C27.3111 47.6268 28.0605 47.6268 28.5227 47.1695L29.1431 46.5552L30.1119 47.5144C31.1036 48.4961 32.4058 48.9869 33.7085 48.9868C35.0108 48.9866 36.3136 48.4959 37.305 47.5144L42.8027 42.0718L39.7409 50.2801C38.8407 52.6935 36.8101 54.5522 34.3095 55.2519L24.844 57.9002C24.6494 57.9547 24.4721 58.0576 24.329 58.1992L22.51 59.9999C22.0479 60.4574 22.0479 61.1993 22.51 61.6569C22.7411 61.8855 23.0439 62 23.3468 62C23.6496 62 23.9526 61.8855 24.1835 61.6569L25.7844 60.072L34.9532 57.5068C38.1799 56.6039 40.7995 54.2059 41.9612 51.0919L46.8027 38.1119L60.5132 24.5387C62.4957 22.5753 62.4957 19.3809 60.5127 17.4176Z" fill="#1341B0"/>
<path d="M40.3655 33.7596C40.5966 33.9882 40.8994 34.1027 41.2022 34.1027C41.5051 34.1027 41.8079 33.9882 42.039 33.7596L54.321 21.6005C54.7831 21.143 54.7831 20.4012 54.321 19.9436C53.8588 19.4862 53.1097 19.4862 52.6473 19.9436L40.3655 32.1027C39.9034 32.5601 39.9034 33.302 40.3655 33.7596ZM27.4213 24.2341L23.4661 28.1498C23.0039 28.6072 23.0039 29.3491 23.4661 29.8067C23.6972 30.0354 24 30.1498 24.3028 30.1498C24.6057 30.1498 24.9086 30.0354 25.1396 29.8067L29.0948 25.891C29.5569 25.4335 29.5569 24.6917 29.0948 24.2341C28.6327 23.7768 27.8834 23.7768 27.4213 24.2341ZM28.3835 17.0417C28.6947 17.0417 29 16.9163 29.2201 16.6983C29.4414 16.4783 29.5661 16.1806 29.5669 15.8701C29.5669 15.562 29.4403 15.2598 29.2201 15.0419C29 14.824 28.6947 14.6986 28.3835 14.6986C28.0723 14.6986 27.7669 14.8238 27.5468 15.0419C27.3267 15.2599 27.2001 15.562 27.2001 15.8701C27.2001 16.1794 27.3267 16.4805 27.5468 16.6983C27.7692 16.9173 28.0698 17.0406 28.3835 17.0417ZM43.0382 18.7986C40.7208 18.7986 38.8355 16.9321 38.8355 14.638C38.8355 12.3439 40.7208 10.4774 43.0382 10.4774C45.3554 10.4774 47.2407 12.3439 47.2407 14.638C47.2407 16.9321 45.3554 18.7986 43.0382 18.7986ZM43.0382 12.8205C42.0258 12.8205 41.2022 13.6358 41.2022 14.638C41.2022 15.6403 42.0258 16.4556 43.0382 16.4556C44.0504 16.4556 44.8739 15.6403 44.8739 14.638C44.8739 13.6358 44.0504 12.8205 43.0382 12.8205Z" fill="#1341B0"/>
</svg>
