<svg width="64" height="64" viewBox="0 0 64 64" fill="none" xmlns="http://www.w3.org/2000/svg">
<path d="M53.2132 10.7867C47.5469 5.12059 40.0133 2 32 2C23.9867 2 16.4531 5.12059 10.7868 10.7867C5.12047 16.4531 2 23.9867 2 32C2 40.0133 5.12047 47.5469 10.7868 53.2133C16.4531 58.8794 23.9867 62 32 62C40.0133 62 47.5469 58.8794 53.2132 53.2133C58.8795 47.5469 62 40.0133 62 32C62 23.9867 58.8795 16.4531 53.2132 10.7867ZM32 59.6562C16.7503 59.6562 4.34375 47.2497 4.34375 32C4.34375 16.7503 16.7503 4.34375 32 4.34375C47.2497 4.34375 59.6562 16.7503 59.6562 32C59.6562 47.2497 47.2497 59.6562 32 59.6562Z" fill="#1341B0"/>
<path d="M16.8168 23.4664H16.7795C16.1322 23.4664 15.6076 23.9912 15.6076 24.6383C15.6076 25.2854 16.1322 25.8102 16.7795 25.8102H16.8168C17.4641 25.8102 17.9887 25.2854 17.9887 24.6383C17.9887 23.9912 17.4641 23.4664 16.8168 23.4664ZM50.4348 31.0906L30.2424 14.6844C30.0706 14.5446 29.8626 14.4564 29.6426 14.4301C29.4227 14.4037 29.1998 14.4402 28.9997 14.5354C28.7997 14.6306 28.6308 14.7806 28.5125 14.9679C28.3942 15.1552 28.3315 15.3722 28.3316 15.5938V23.4664H21.6875C21.0403 23.4664 20.5156 23.9912 20.5156 24.6383C20.5156 25.2854 21.0403 25.8102 21.6875 25.8102H29.5034C30.1507 25.8102 30.6753 25.2854 30.6753 24.6383V18.0559L47.8374 32L30.6754 45.9441V39.3617C30.6754 38.7146 30.1508 38.1898 29.5036 38.1898H17.9514V29.8906C17.9514 29.2435 17.4268 28.7188 16.7796 28.7188C16.1323 28.7188 15.6077 29.2435 15.6077 29.8906V39.3617C15.6077 40.0088 16.1323 40.5336 16.7796 40.5336H28.3317V48.4062C28.3317 48.6277 28.3944 48.8447 28.5127 49.032C28.631 49.2192 28.7999 49.3692 28.9998 49.4644C29.1998 49.5596 29.4227 49.5961 29.6426 49.5699C29.8625 49.5436 30.0705 49.4555 30.2424 49.3159L50.4348 32.9096C50.57 32.7997 50.679 32.6611 50.7539 32.5037C50.8288 32.3464 50.8676 32.1744 50.8676 32.0001C50.8676 31.8259 50.8288 31.6538 50.7539 31.4965C50.679 31.3392 50.57 31.2005 50.4348 31.0906ZM47.0925 11.0957L47.0112 11.0373C46.4857 10.6596 45.7534 10.7793 45.3757 11.3048C44.998 11.8303 45.1177 12.5626 45.6432 12.9404L45.7244 12.9989C45.9233 13.1423 46.1623 13.2194 46.4075 13.2193C46.5936 13.2196 46.7771 13.1754 46.9428 13.0906C47.1085 13.0057 47.2515 12.8826 47.36 12.7313C47.7377 12.2059 47.6179 11.4736 47.0925 11.0957ZM50.5109 14.0552C50.0605 13.5905 49.3186 13.5791 48.8539 14.0295C48.3893 14.4801 48.3778 15.222 48.8284 15.6867C53.0904 20.0824 55.4375 25.8758 55.4375 32C55.4375 32.6471 55.9621 33.1719 56.6094 33.1719C57.2566 33.1719 57.7812 32.6471 57.7812 32C57.7812 25.2635 55.1993 18.8905 50.5109 14.0552Z" fill="#1341B0"/>
</svg>
