<svg width="64" height="64" viewBox="0 0 64 64" fill="none" xmlns="http://www.w3.org/2000/svg">
<path d="M20.2812 45.3597C19.6343 45.3597 19.1093 45.8847 19.1093 46.5316C19.1093 47.1785 19.6343 47.7035 20.2812 47.7035C20.9281 47.7035 21.4531 47.1785 21.4531 46.5316C21.4531 45.8847 20.9281 45.3597 20.2812 45.3597Z" fill="#1341B0"/>
<path d="M54.7511 24.2657L61.6568 17.3599C61.7996 17.2171 61.9031 17.0398 61.9572 16.8452C62.0113 16.6506 62.0142 16.4453 61.9656 16.2493C61.917 16.0532 61.8185 15.8731 61.6798 15.7263C61.5411 15.5795 61.3667 15.4711 61.1738 15.4115L44.3574 10.2212C42.8415 5.34842 38.3359 2 33.1718 2C28.3713 2 24.0781 4.92561 22.3012 9.33892L2.82303 15.4126C2.63048 15.4726 2.45669 15.5813 2.31846 15.7282C2.18024 15.8751 2.08227 16.0552 2.03402 16.251C1.98578 16.4468 1.98889 16.6518 2.04307 16.8461C2.09724 17.0404 2.20064 17.2174 2.34327 17.36L9.43062 24.4474L4.96064 31.8977C4.87037 32.0482 4.81505 32.217 4.79875 32.3917C4.78246 32.5665 4.80561 32.7426 4.8665 32.9072C4.92738 33.0718 5.02445 33.2206 5.15053 33.3426C5.27662 33.4647 5.4285 33.5569 5.59497 33.6124L12.0781 35.7733V53.7972C12.0781 54.0357 12.1509 54.2686 12.2868 54.4646C12.4227 54.6607 12.6152 54.8106 12.8385 54.8944C16.8026 56.3808 31.5313 61.9048 31.6104 61.9328C31.8524 62.0187 32.1159 62.0223 32.3601 61.9433C32.3635 61.9421 32.3671 61.9414 32.3705 61.9402L53.4641 54.9089C53.6975 54.8311 53.9004 54.6819 54.0442 54.4824C54.188 54.2828 54.2654 54.0431 54.2655 53.7972V35.2908L61.1793 33.1181C61.3715 33.0577 61.5449 32.9488 61.6827 32.8018C61.8205 32.6549 61.9182 32.4749 61.9661 32.2792C62.0141 32.0836 62.0109 31.8788 61.9567 31.6848C61.9025 31.4907 61.7991 31.3139 61.6567 31.1715L54.7511 24.2657ZM44.8905 13.7188C44.8905 13.4211 44.878 13.124 44.8556 12.8279L58.6243 17.0777L52.7771 22.9249L43.223 19.7406C44.3049 17.9322 44.8905 15.8456 44.8905 13.7188ZM24.3039 10.6687C25.6048 6.88558 29.1686 4.34377 33.1718 4.34377C37.4844 4.34377 41.2248 7.26082 42.2676 11.4374C42.4534 12.1837 42.5471 12.9498 42.5467 13.7188C42.5467 15.8955 41.8244 17.9356 40.4575 19.6195C38.6673 21.8276 36.0117 23.0939 33.1718 23.0939C30.102 23.0939 27.2225 21.5871 25.4687 19.0622C24.375 17.4911 23.7968 15.6433 23.7968 13.7188C23.7968 12.6722 23.9673 11.646 24.3039 10.6687ZM5.37091 17.0731L21.5779 12.0195C21.4954 12.5822 21.4537 13.15 21.4531 13.7187C21.4531 15.6056 21.9 17.4331 22.752 19.0821L11.2228 22.9249L5.37091 17.0731ZM7.72203 31.8508L11.4275 25.6748L30.2434 31.9468L26.5381 38.1228L7.72203 31.8508ZM30.828 59.1375L14.4219 52.9852V36.5546C27.33 40.8346 26.6997 40.7039 27.0591 40.7039C27.462 40.7039 27.8477 40.4954 28.0642 40.1349L30.828 35.5281V59.1375ZM31.9999 30.0618L14.6122 24.2659L24.0802 21.11C26.2962 23.8343 29.6322 25.4377 33.1718 25.4377C36.4462 25.4377 39.5237 24.0901 41.7372 21.7159L49.3877 24.2658L31.9999 30.0618ZM51.9217 52.9526L33.1718 59.2026V34.6376L37.3262 39.8302C37.4738 40.0146 37.6737 40.1502 37.8997 40.2191C38.1257 40.2879 38.3672 40.2869 38.5926 40.2161L51.9217 36.0274V52.9526ZM38.6552 37.7398L33.9649 31.8773L52.7771 25.6065L58.6322 31.4617L38.6552 37.7398Z" fill="#1341B0"/>
<path d="M27.724 47.9608L25.1178 46.9835C24.5118 46.7564 23.8363 47.0633 23.609 47.6693C23.3817 48.2753 23.6888 48.9508 24.2947 49.1781L26.901 50.1554C27.5083 50.383 28.1829 50.0745 28.4098 49.4696C28.637 48.8636 28.33 48.188 27.724 47.9608ZM27.7239 52.9671L20.6926 50.3304C20.0867 50.1031 19.4112 50.4102 19.1839 51.0162C18.9565 51.6221 19.2637 52.2977 19.8696 52.525L26.9009 55.1617C27.0324 55.2112 27.1717 55.2366 27.3122 55.2367C27.7867 55.2367 28.2332 54.9464 28.4097 54.4759C28.637 53.8698 28.33 53.1943 27.7239 52.9671ZM39.8599 9.37443C39.4023 8.91669 38.6602 8.91681 38.2025 9.37443L31.9999 15.5772L30.4848 14.0621C30.0272 13.6045 29.2852 13.6045 28.8274 14.0621C28.3697 14.5197 28.3698 15.2617 28.8274 15.7195L31.1713 18.0631C31.6289 18.5208 32.3709 18.5208 32.8287 18.0631L39.8599 11.0318C40.3175 10.5742 40.3175 9.83217 39.8599 9.37443Z" fill="#1341B0"/>
</svg>
