<svg width="64" height="64" viewBox="0 0 64 64" fill="none" xmlns="http://www.w3.org/2000/svg">
<path d="M59.583 20.476C58.042 16.9256 55.8499 13.7146 53.0676 10.9324C50.2854 8.15012 47.0744 5.95801 43.524 4.41699C39.8292 2.81316 35.9519 2 32 2C28.0481 2 24.1708 2.81316 20.476 4.41699C16.9256 5.95801 13.7146 8.15012 10.9324 10.9324C8.15012 13.7146 5.95801 16.9256 4.41699 20.476C2.81316 24.1708 2 28.0481 2 32C2 35.9519 2.81316 39.8292 4.41699 43.524C5.95789 47.0744 8.15 50.2854 10.9324 53.0676C13.7146 55.8499 16.9256 58.042 20.476 59.583C24.1708 61.1868 28.0481 62 32 62C35.9519 62 39.8292 61.1868 43.524 59.583C47.0744 58.042 50.2854 55.8499 53.0676 53.0676C55.8499 50.2854 58.042 47.0744 59.583 43.524C61.1868 39.8292 62 35.9519 62 32C62 28.0481 61.1868 24.1708 59.583 20.476ZM32 59.6562C17.0088 59.6562 4.34375 46.9912 4.34375 32C4.34375 17.0088 17.0088 4.34375 32 4.34375C46.9912 4.34375 59.6562 17.0088 59.6562 32C59.6562 46.9912 46.9912 59.6562 32 59.6562Z" fill="#1341B0"/>
<path d="M54.9658 22.3677C53.692 19.408 51.8764 16.7375 49.5695 14.4307C47.2625 12.1237 44.5921 10.3081 41.6325 9.0343C38.5564 7.71031 35.3156 7.03906 32 7.03906C27.4927 7.03906 22.7943 8.5782 18.4127 11.49C17.8736 11.8482 17.727 12.5756 18.0853 13.1145C18.4435 13.6536 19.1709 13.8001 19.7098 13.442C23.7059 10.7865 27.9557 9.38281 32 9.38281C44.2598 9.38281 54.6172 19.7402 54.6172 32C54.6172 44.2598 44.2598 54.6172 32 54.6172C19.7402 54.6172 9.38281 44.2598 9.38281 32C9.38281 27.9566 10.7861 23.7065 13.4409 19.7097C13.799 19.1705 13.6523 18.4433 13.1132 18.0852C12.5739 17.727 11.8468 17.8739 11.4887 18.4129C8.57773 22.7954 7.03906 27.4937 7.03906 32C7.03906 35.3156 7.71031 38.5564 9.03418 41.6323C10.308 44.592 12.1236 47.2625 14.4305 49.5693C16.7375 51.8764 19.4079 53.6919 22.3677 54.9658C25.4436 56.2897 28.6844 56.9609 32 56.9609C35.3156 56.9609 38.5564 56.2897 41.6323 54.9658C44.592 53.692 47.2625 51.8764 49.5693 49.5695C51.8763 47.2625 53.6919 44.5921 54.9657 41.6325C56.2897 38.5564 56.9609 35.3156 56.9609 32C56.9609 28.6844 56.2897 25.4436 54.9658 22.3677Z" fill="#1341B0"/>
<path d="M15.4766 14.3047C14.8297 14.3047 14.3047 14.8297 14.3047 15.4766C14.3047 16.1234 14.8297 16.6484 15.4766 16.6484C16.1234 16.6484 16.6484 16.1234 16.6484 15.4766C16.6484 14.8297 16.1234 14.3047 15.4766 14.3047ZM45.8611 22.8264C44.9755 21.9409 43.7986 21.4531 42.5469 21.4531C41.2952 21.4531 40.1183 21.9409 39.2327 22.8264L28.4844 33.5748L24.7673 29.8577C23.8817 28.9721 22.7048 28.4844 21.4531 28.4844C20.2014 28.4844 19.0245 28.9721 18.1393 29.8573C17.2535 30.7425 16.7656 31.9195 16.7656 33.1719C16.7656 34.4243 17.2535 35.6013 18.1389 36.4861L25.1702 43.5173C26.0558 44.4029 27.2328 44.8906 28.4844 44.8906C29.7359 44.8906 30.913 44.4029 31.7986 43.5173L45.8607 29.4552C46.7465 28.57 47.2344 27.393 47.2344 26.1406C47.2344 24.8882 46.7465 23.7112 45.8611 22.8264ZM44.2038 27.7975L30.1413 41.86C29.6983 42.3029 29.1099 42.5469 28.4844 42.5469C27.8588 42.5469 27.2704 42.3029 26.8275 41.86L19.7959 34.8284C19.3532 34.3861 19.1094 33.7978 19.1094 33.1719C19.1094 32.546 19.3532 31.9577 19.7962 31.515C20.2392 31.0721 20.8276 30.8281 21.4531 30.8281C22.0787 30.8281 22.6671 31.0721 23.11 31.515L28.4844 36.8893L40.89 24.4837C41.3329 24.0409 41.9213 23.7969 42.5469 23.7969C43.1724 23.7969 43.7608 24.0409 44.2041 24.4841C44.6468 24.9264 44.8906 25.5147 44.8906 26.1406C44.8906 26.7665 44.6468 27.3548 44.2038 27.7975Z" fill="#1341B0"/>
</svg>
