<svg width="36" height="36" viewBox="0 0 36 36" fill="none" xmlns="http://www.w3.org/2000/svg">
<path d="M19.7777 9.00009C21.6178 9.19408 23.3366 10.0106 24.6499 11.3147C25.9632 12.6188 26.7923 14.3323 27 16.1718M19.7777 12.6131C20.6656 12.7882 21.4803 13.2264 22.1162 13.8706C22.7521 14.5149 23.1798 15.3355 23.3437 16.226M26.9549 22.4765V25.1862C26.9559 25.4377 26.9044 25.6867 26.8037 25.9172C26.7029 26.1477 26.5552 26.3546 26.3699 26.5247C26.1846 26.6947 25.9659 26.8242 25.7277 26.9048C25.4896 26.9854 25.2372 27.0153 24.9868 26.9927C22.2087 26.6907 19.5402 25.7409 17.1957 24.2197C15.0144 22.8329 13.165 20.9827 11.7789 18.8003C10.2532 16.4439 9.30366 13.7611 9.00733 10.9692C8.98477 10.7194 9.01444 10.4676 9.09445 10.23C9.17446 9.99229 9.30306 9.77389 9.47206 9.58866C9.64105 9.40343 9.84675 9.25544 10.076 9.15411C10.3053 9.05278 10.5532 9.00032 10.8039 9.00009H13.5123C13.9504 8.99577 14.3751 9.151 14.7074 9.43683C15.0396 9.72267 15.2565 10.1196 15.3179 10.5537C15.4322 11.4208 15.6442 12.2723 15.9498 13.0918C16.0713 13.4151 16.0976 13.7664 16.0256 14.1042C15.9536 14.442 15.7863 14.752 15.5436 14.9976L14.397 16.1447C15.6822 18.406 17.5536 20.2784 19.8138 21.5642L20.9603 20.4171C21.2058 20.1742 21.5157 20.0069 21.8533 19.9348C22.1909 19.8628 22.5421 19.8891 22.8652 20.0106C23.6843 20.3164 24.5353 20.5285 25.4021 20.6429C25.8406 20.7048 26.2411 20.9258 26.5274 21.2639C26.8137 21.6019 26.9658 22.0335 26.9549 22.4765Z" stroke="#1341B0" stroke-width="2" stroke-linecap="round" stroke-linejoin="round"/>
</svg>
