<svg width="36" height="36" viewBox="0 0 36 36" fill="none" xmlns="http://www.w3.org/2000/svg">
<g clip-path="url(#clip0_181_2064)">
<path d="M18 36C27.9411 36 36 27.9411 36 18C36 8.05887 27.9411 0 18 0C8.05887 0 0 8.05887 0 18C0 27.9411 8.05887 36 18 36Z" fill="url(#paint0_linear_181_2064)"/>
<path fill-rule="evenodd" clip-rule="evenodd" d="M8.14802 17.81C13.3954 15.5238 16.8945 14.0166 18.6452 13.2884C23.644 11.2092 24.6827 10.8481 25.3597 10.8361C25.5086 10.8335 25.8416 10.8704 26.0572 11.0454C26.2393 11.1932 26.2894 11.3928 26.3134 11.5329C26.3374 11.673 26.3672 11.9921 26.3435 12.2415C26.0726 15.0877 24.9005 21.9947 24.3042 25.1825C24.0519 26.5314 23.555 26.9837 23.0741 27.028C22.0288 27.1242 21.235 26.3372 20.2226 25.6735C18.6384 24.635 17.7434 23.9886 16.2056 22.9752C14.4284 21.8041 15.5805 21.1604 16.5933 20.1085C16.8584 19.8332 21.4639 15.644 21.5531 15.264C21.5642 15.2165 21.5746 15.0393 21.4693 14.9458C21.3641 14.8522 21.2087 14.8842 21.0966 14.9097C20.9378 14.9457 18.4069 16.6185 13.5041 19.928C12.7858 20.4213 12.1351 20.6617 11.5521 20.6491C10.9094 20.6352 9.67314 20.2857 8.75409 19.9869C7.62684 19.6205 6.73092 19.4268 6.80893 18.8045C6.84957 18.4803 7.29593 18.1488 8.14802 17.81Z" fill="white"/>
</g>
<defs>
<linearGradient id="paint0_linear_181_2064" x1="1800" y1="0" x2="1800" y2="3573.3" gradientUnits="userSpaceOnUse">
<stop stop-color="#2AABEE"/>
<stop offset="1" stop-color="#229ED9"/>
</linearGradient>
<clipPath id="clip0_181_2064">
<rect width="36" height="36" fill="white"/>
</clipPath>
</defs>
</svg>
