<svg width="25" height="24" viewBox="0 0 25 24" fill="none" xmlns="http://www.w3.org/2000/svg">
<path d="M9.33301 12L11.333 14L15.333 10M20.333 13C20.333 18 16.833 20.5 12.673 21.95C12.4552 22.0238 12.2185 22.0203 12.003 21.94C7.83301 20.5 4.33301 18 4.33301 13V6.00002C4.33301 5.73481 4.43836 5.48045 4.6259 5.29292C4.81344 5.10538 5.06779 5.00002 5.33301 5.00002C7.33301 5.00002 9.83301 3.80002 11.573 2.28002C11.7849 2.09902 12.0544 1.99957 12.333 1.99957C12.6117 1.99957 12.8812 2.09902 13.093 2.28002C14.843 3.81002 17.333 5.00002 19.333 5.00002C19.5982 5.00002 19.8526 5.10538 20.0401 5.29292C20.2277 5.48045 20.333 5.73481 20.333 6.00002V13Z" stroke="#1341B0" stroke-width="2" stroke-linecap="round" stroke-linejoin="round"/>
</svg>
