<svg width="25" height="24" viewBox="0 0 25 24" fill="none" xmlns="http://www.w3.org/2000/svg">
<path d="M12.667 22V12M12.667 12L3.95699 7.00002M12.667 12L21.377 7.00002M8.16699 4.27002L17.167 9.42002M11.667 21.73C11.971 21.9056 12.3159 21.998 12.667 21.998C13.0181 21.998 13.363 21.9056 13.667 21.73L20.667 17.73C20.9707 17.5547 21.223 17.3025 21.3985 16.9989C21.574 16.6952 21.6666 16.3508 21.667 16V8.00002C21.6666 7.6493 21.574 7.30483 21.3985 7.00119C21.223 6.69754 20.9707 6.44539 20.667 6.27002L13.667 2.27002C13.363 2.09449 13.0181 2.00208 12.667 2.00208C12.3159 2.00208 11.971 2.09449 11.667 2.27002L4.66699 6.27002C4.36325 6.44539 4.11097 6.69754 3.93545 7.00119C3.75993 7.30483 3.66735 7.6493 3.66699 8.00002V16C3.66735 16.3508 3.75993 16.6952 3.93545 16.9989C4.11097 17.3025 4.36325 17.5547 4.66699 17.73L11.667 21.73Z" stroke="#1341B0" stroke-width="2" stroke-linecap="round" stroke-linejoin="round"/>
</svg>
